<svg width="111" height="28" viewBox="0 0 111 28" fill="none" xmlns="http://www.w3.org/2000/svg">
<path d="M109 0H2C0.895431 0 0 0.895431 0 2V26C0 27.1046 0.895429 28 2 28H109C110.105 28 111 27.1046 111 26V2C111 0.895431 110.105 0 109 0Z" fill="#EA4335"/>
<path d="M47.9072 17.5H42.6484V10.2295H47.9072V11.6357H44.5137V12.8906H47.6631V14.2969H44.5137V16.0938H47.9072V17.5ZM56.2373 14.9707H52.5117V13.5645H56.2373V14.9707ZM68.7471 17.5H66.8818V12.6318L65.5342 15.791H64.2402L62.8926 12.6318V17.5H61.125V10.2295H63.3027L64.9385 13.877L66.5693 10.2295H68.7471V17.5ZM77.3262 17.5H75.3877L74.8848 16.0303H72.1895L71.6865 17.5H69.7969L72.4824 10.2295H74.6406L77.3262 17.5ZM74.4307 14.6973L73.5371 12.0898L72.6436 14.6973H74.4307ZM82.3018 17.5H78.0439V16.2109H79.2354V11.5186H78.0439V10.2295H82.3018V11.5186H81.1104V16.2109H82.3018V17.5ZM89.0742 17.5H83.8301V10.2295H85.7051V16.0938H89.0742V17.5Z" fill="white"/>
<path d="M9.43151 6H26.5685C28.1852 6 29 6.76308 29 8.31511V19.2052C29 20.7443 28.1852 21.5203 26.5685 21.5203H9.43151C7.81481 21.5203 7 20.7443 7 19.2052V8.31511C7 6.76308 7.81481 6 9.43151 6ZM17.9935 17.1229L26.7108 9.97061C27.0212 9.71193 27.2669 9.11699 26.8789 8.58671C26.5038 8.05644 25.8183 8.0435 25.3657 8.36684L17.9935 13.3592L10.6343 8.36684C10.1817 8.0435 9.49618 8.05644 9.12111 8.58671C8.7331 9.11699 8.97884 9.71193 9.28924 9.97061L17.9935 17.1229Z" fill="white"/>
</svg>
