<svg width="111" height="28" viewBox="0 0 111 28" fill="none" xmlns="http://www.w3.org/2000/svg">
<path d="M109 0H2C0.895431 0 0 0.895431 0 2V26C0 27.1046 0.895429 28 2 28H109C110.105 28 111 27.1046 111 26V2C111 0.895431 110.105 0 109 0Z" fill="#4267B2"/>
<path d="M41.7959 11.6357H38.4512V12.9883H41.5518V14.3945H38.4512V17.5H36.5859V10.2295H41.7959V11.6357ZM49.8086 17.5H47.8701L47.3672 16.0303H44.6719L44.1689 17.5H42.2793L44.9648 10.2295H47.123L49.8086 17.5ZM46.9131 14.6973L46.0195 12.0898L45.126 14.6973H46.9131ZM54.1396 17.6416C53.5993 17.6416 53.0996 17.5618 52.6406 17.4023C52.1849 17.2428 51.7926 17.0052 51.4639 16.6895C51.1351 16.3737 50.8796 15.9798 50.6973 15.5078C50.5182 15.0358 50.4287 14.4906 50.4287 13.8721C50.4287 13.2959 50.515 12.7734 50.6875 12.3047C50.86 11.8359 51.1107 11.4339 51.4395 11.0986C51.7552 10.7764 52.1458 10.5273 52.6113 10.3516C53.0801 10.1758 53.5911 10.0879 54.1445 10.0879C54.4505 10.0879 54.7256 10.1058 54.9697 10.1416C55.2171 10.1742 55.445 10.2181 55.6533 10.2734C55.8714 10.3353 56.0684 10.4053 56.2441 10.4834C56.4232 10.5583 56.5794 10.6283 56.7129 10.6934V12.4561H56.498C56.4069 12.3779 56.2913 12.2852 56.1514 12.1777C56.0146 12.0703 55.8584 11.9645 55.6826 11.8604C55.5036 11.7562 55.3099 11.6683 55.1016 11.5967C54.8932 11.5251 54.6702 11.4893 54.4326 11.4893C54.1689 11.4893 53.9183 11.5316 53.6807 11.6162C53.443 11.6976 53.2233 11.8343 53.0215 12.0264C52.8294 12.2119 52.6732 12.4577 52.5527 12.7637C52.4355 13.0697 52.377 13.4408 52.377 13.877C52.377 14.3327 52.4404 14.7135 52.5674 15.0195C52.6976 15.3255 52.8604 15.5664 53.0557 15.7422C53.2542 15.9212 53.4756 16.0498 53.7197 16.1279C53.9639 16.2028 54.2048 16.2402 54.4424 16.2402C54.6702 16.2402 54.8949 16.2061 55.1162 16.1377C55.3408 16.0693 55.5475 15.9766 55.7363 15.8594C55.8958 15.765 56.0439 15.6641 56.1807 15.5566C56.3174 15.4492 56.4297 15.3564 56.5176 15.2783H56.7129V17.0166C56.5306 17.098 56.3564 17.1745 56.1904 17.2461C56.0244 17.3177 55.8503 17.3796 55.668 17.4316C55.4303 17.5 55.2074 17.5521 54.999 17.5879C54.7907 17.6237 54.5042 17.6416 54.1396 17.6416ZM63.3486 17.5H58.0898V10.2295H63.3486V11.6357H59.9551V12.8906H63.1045V14.2969H59.9551V16.0938H63.3486V17.5ZM71.1465 15.2734C71.1465 15.625 71.0749 15.9391 70.9316 16.2158C70.7917 16.4925 70.598 16.722 70.3506 16.9043C70.0641 17.1191 69.7484 17.2721 69.4033 17.3633C69.0615 17.4544 68.627 17.5 68.0996 17.5H64.9258V10.2295H67.748C68.334 10.2295 68.762 10.249 69.0322 10.2881C69.3057 10.3271 69.5758 10.4134 69.8428 10.5469C70.1195 10.6868 70.3245 10.8757 70.458 11.1133C70.5947 11.3477 70.6631 11.6162 70.6631 11.9189C70.6631 12.2705 70.5703 12.5814 70.3848 12.8516C70.1992 13.1185 69.9372 13.3268 69.5986 13.4766V13.5156C70.0739 13.61 70.4499 13.8053 70.7266 14.1016C71.0065 14.3978 71.1465 14.7884 71.1465 15.2734ZM68.7441 12.2852C68.7441 12.1647 68.7132 12.0443 68.6514 11.9238C68.5928 11.8034 68.487 11.7139 68.334 11.6553C68.1973 11.6032 68.0264 11.5755 67.8213 11.5723C67.6195 11.5658 67.3346 11.5625 66.9668 11.5625H66.791V13.1006H67.084C67.3802 13.1006 67.6325 13.0957 67.8408 13.0859C68.0492 13.0762 68.2135 13.0436 68.334 12.9883C68.5033 12.9134 68.6139 12.8174 68.666 12.7002C68.7181 12.5798 68.7441 12.4414 68.7441 12.2852ZM69.2031 15.2441C69.2031 15.013 69.1576 14.8356 69.0664 14.7119C68.9785 14.585 68.8271 14.4906 68.6123 14.4287C68.4658 14.3864 68.264 14.3636 68.0068 14.3604C67.7497 14.3571 67.4811 14.3555 67.2012 14.3555H66.791V16.167H66.9277C67.4551 16.167 67.8327 16.1654 68.0605 16.1621C68.2884 16.1589 68.4984 16.1165 68.6904 16.0352C68.8857 15.9538 69.0192 15.8464 69.0908 15.7129C69.1657 15.5762 69.2031 15.4199 69.2031 15.2441ZM79.6133 13.8672C79.6133 15.026 79.2812 15.9473 78.6172 16.6309C77.9531 17.3112 77.0352 17.6514 75.8633 17.6514C74.6947 17.6514 73.7783 17.3112 73.1143 16.6309C72.4502 15.9473 72.1182 15.026 72.1182 13.8672C72.1182 12.6986 72.4502 11.7757 73.1143 11.0986C73.7783 10.4183 74.6947 10.0781 75.8633 10.0781C77.0286 10.0781 77.945 10.4183 78.6123 11.0986C79.2796 11.7757 79.6133 12.6986 79.6133 13.8672ZM77.1279 15.708C77.3102 15.4867 77.4453 15.2262 77.5332 14.9268C77.6211 14.624 77.665 14.2692 77.665 13.8623C77.665 13.4261 77.6146 13.055 77.5137 12.749C77.4128 12.443 77.2809 12.1956 77.1182 12.0068C76.9521 11.8115 76.7601 11.6699 76.542 11.582C76.3271 11.4941 76.1025 11.4502 75.8682 11.4502C75.6305 11.4502 75.4059 11.4925 75.1943 11.5771C74.986 11.6618 74.7939 11.8018 74.6182 11.9971C74.4554 12.1794 74.3219 12.4316 74.2178 12.7539C74.1169 13.0729 74.0664 13.444 74.0664 13.8672C74.0664 14.3001 74.1152 14.6696 74.2129 14.9756C74.3138 15.2783 74.4456 15.5257 74.6084 15.7178C74.7712 15.9098 74.9616 16.0514 75.1797 16.1426C75.3978 16.2337 75.6273 16.2793 75.8682 16.2793C76.109 16.2793 76.3385 16.2337 76.5566 16.1426C76.7747 16.0482 76.9652 15.9033 77.1279 15.708ZM88.1191 13.8672C88.1191 15.026 87.7871 15.9473 87.123 16.6309C86.459 17.3112 85.541 17.6514 84.3691 17.6514C83.2005 17.6514 82.2842 17.3112 81.6201 16.6309C80.9561 15.9473 80.624 15.026 80.624 13.8672C80.624 12.6986 80.9561 11.7757 81.6201 11.0986C82.2842 10.4183 83.2005 10.0781 84.3691 10.0781C85.5345 10.0781 86.4508 10.4183 87.1182 11.0986C87.7855 11.7757 88.1191 12.6986 88.1191 13.8672ZM85.6338 15.708C85.8161 15.4867 85.9512 15.2262 86.0391 14.9268C86.127 14.624 86.1709 14.2692 86.1709 13.8623C86.1709 13.4261 86.1204 13.055 86.0195 12.749C85.9186 12.443 85.7868 12.1956 85.624 12.0068C85.458 11.8115 85.266 11.6699 85.0479 11.582C84.833 11.4941 84.6084 11.4502 84.374 11.4502C84.1364 11.4502 83.9118 11.4925 83.7002 11.5771C83.4919 11.6618 83.2998 11.8018 83.124 11.9971C82.9613 12.1794 82.8278 12.4316 82.7236 12.7539C82.6227 13.0729 82.5723 13.444 82.5723 13.8672C82.5723 14.3001 82.6211 14.6696 82.7188 14.9756C82.8197 15.2783 82.9515 15.5257 83.1143 15.7178C83.277 15.9098 83.4674 16.0514 83.6855 16.1426C83.9036 16.2337 84.1331 16.2793 84.374 16.2793C84.6149 16.2793 84.8444 16.2337 85.0625 16.1426C85.2806 16.0482 85.471 15.9033 85.6338 15.708ZM96.3418 17.5H94.042L91.8691 14.5898L91.4297 15.1221V17.5H89.5547V10.2295H91.4297V13.5205L94.0273 10.2295H96.2002L93.3584 13.5938L96.3418 17.5Z" fill="white"/>
<path d="M7.01707 3C4.79179 3 3 4.79179 3 7.01706V20.9829C3 23.2082 4.79179 25 7.01707 25H14.5865V16.3994H12.3122V13.3029H14.5865V10.6574C14.5865 8.57892 15.9302 6.67056 19.0256 6.67056C20.2789 6.67056 21.2057 6.79088 21.2057 6.79088L21.1328 9.68251C21.1328 9.68251 20.1876 9.67358 19.1562 9.67358C18.04 9.67358 17.861 10.1879 17.861 11.0417V13.3029H21.2215L21.0751 16.3994H17.861V25H20.9829C23.2082 25 25 23.2082 25 20.9829V7.01708C25 4.79181 23.2082 3.00002 20.9829 3.00002H7.01705L7.01707 3Z" fill="white"/>
</svg>
