<svg width="111" height="28" viewBox="0 0 111 28" fill="none" xmlns="http://www.w3.org/2000/svg">
<path d="M109 0H2C0.895431 0 0 0.895431 0 2V26C0 27.1046 0.895429 28 2 28H109C110.105 28 111 27.1046 111 26V2C111 0.895431 110.105 0 109 0Z" fill="#DD2A7B"/>
<path fill-rule="evenodd" clip-rule="evenodd" d="M10.465 3.066C11.638 3.012 12.012 3 15 3C17.988 3 18.362 3.013 19.534 3.066C20.706 3.119 21.506 3.306 22.206 3.577C22.939 3.854 23.604 4.287 24.154 4.847C24.714 5.396 25.146 6.06 25.422 6.794C25.694 7.494 25.88 8.294 25.934 9.464C25.988 10.639 26 11.013 26 14C26 16.988 25.987 17.362 25.934 18.535C25.881 19.705 25.694 20.505 25.422 21.205C25.146 21.9391 24.7133 22.6042 24.154 23.154C23.604 23.714 22.939 24.146 22.206 24.422C21.506 24.694 20.706 24.88 19.536 24.934C18.362 24.988 17.988 25 15 25C12.012 25 11.638 24.987 10.465 24.934C9.295 24.881 8.495 24.694 7.795 24.422C7.06092 24.146 6.39582 23.7133 5.846 23.154C5.28638 22.6047 4.85331 21.9399 4.577 21.206C4.306 20.506 4.12 19.706 4.066 18.536C4.012 17.361 4 16.987 4 14C4 11.012 4.013 10.638 4.066 9.466C4.119 8.294 4.306 7.494 4.577 6.794C4.85372 6.06008 5.28712 5.39531 5.847 4.846C6.39604 4.2865 7.06047 3.85344 7.794 3.577C8.494 3.306 9.294 3.12 10.464 3.066H10.465ZM19.445 5.046C18.285 4.993 17.937 4.982 15 4.982C12.063 4.982 11.715 4.993 10.555 5.046C9.482 5.095 8.9 5.274 8.512 5.425C7.999 5.625 7.632 5.862 7.247 6.247C6.88205 6.60205 6.60118 7.03428 6.425 7.512C6.274 7.9 6.095 8.482 6.046 9.555C5.993 10.715 5.982 11.063 5.982 14C5.982 16.937 5.993 17.285 6.046 18.445C6.095 19.518 6.274 20.1 6.425 20.488C6.601 20.965 6.882 21.398 7.247 21.753C7.602 22.118 8.035 22.399 8.512 22.575C8.9 22.726 9.482 22.905 10.555 22.954C11.715 23.007 12.062 23.018 15 23.018C17.938 23.018 18.285 23.007 19.445 22.954C20.518 22.905 21.1 22.726 21.488 22.575C22.001 22.375 22.368 22.138 22.753 21.753C23.118 21.398 23.399 20.965 23.575 20.488C23.726 20.1 23.905 19.518 23.954 18.445C24.007 17.285 24.018 16.937 24.018 14C24.018 11.063 24.007 10.715 23.954 9.555C23.905 8.482 23.726 7.9 23.575 7.512C23.375 6.999 23.138 6.632 22.753 6.247C22.3979 5.88207 21.9657 5.60121 21.488 5.425C21.1 5.274 20.518 5.095 19.445 5.046V5.046ZM13.595 17.391C14.3797 17.7176 15.2534 17.7617 16.0669 17.5157C16.8805 17.2697 17.5834 16.7489 18.0556 16.0422C18.5278 15.3356 18.7401 14.4869 18.656 13.6411C18.572 12.7953 18.197 12.005 17.595 11.405C17.2112 11.0215 16.7472 10.7278 16.2363 10.5451C15.7255 10.3625 15.1804 10.2954 14.6405 10.3486C14.1006 10.4019 13.5792 10.5742 13.1138 10.8531C12.6485 11.1321 12.2507 11.5107 11.9493 11.9619C11.6479 12.413 11.4502 12.9253 11.3705 13.462C11.2908 13.9986 11.3312 14.5463 11.4885 15.0655C11.6459 15.5847 11.9165 16.0626 12.2807 16.4647C12.645 16.8668 13.0938 17.1832 13.595 17.391ZM11.002 10.002C11.527 9.47698 12.1503 9.0605 12.8363 8.77636C13.5223 8.49222 14.2575 8.34597 15 8.34597C15.7425 8.34597 16.4777 8.49222 17.1637 8.77636C17.8497 9.0605 18.473 9.47698 18.998 10.002C19.523 10.527 19.9395 11.1503 20.2236 11.8363C20.5078 12.5223 20.654 13.2575 20.654 14C20.654 14.7425 20.5078 15.4777 20.2236 16.1637C19.9395 16.8497 19.523 17.473 18.998 17.998C17.9377 19.0583 16.4995 19.654 15 19.654C13.5005 19.654 12.0623 19.0583 11.002 17.998C9.94166 16.9377 9.34597 15.4995 9.34597 14C9.34597 12.5005 9.94166 11.0623 11.002 10.002V10.002ZM21.908 9.188C22.0381 9.06527 22.1423 8.91768 22.2143 8.75397C22.2863 8.59027 22.3248 8.41377 22.3274 8.23493C22.33 8.05609 22.2967 7.87855 22.2295 7.71281C22.1622 7.54707 22.0624 7.39651 21.936 7.27004C21.8095 7.14357 21.6589 7.04376 21.4932 6.97652C21.3275 6.90928 21.1499 6.87598 20.9711 6.87858C20.7922 6.88119 20.6157 6.91965 20.452 6.9917C20.2883 7.06374 20.1407 7.1679 20.018 7.298C19.7793 7.55103 19.6486 7.88712 19.6537 8.23493C19.6588 8.58274 19.7992 8.91488 20.0452 9.16084C20.2911 9.40681 20.6233 9.54723 20.9711 9.5523C21.3189 9.55737 21.655 9.42669 21.908 9.188V9.188Z" fill="white"/>
<path d="M36.959 17H32.7012V15.7109H33.8926V11.0186H32.7012V9.72949H36.959V11.0186H35.7676V15.7109H36.959V17ZM45.0986 17H43.292L40.2061 12.0098V17H38.4873V9.72949H40.7285L43.3799 13.8945V9.72949H45.0986V17ZM52.7744 14.7148C52.7744 15.431 52.4701 16.0137 51.8613 16.4629C51.2559 16.9089 50.4323 17.1318 49.3906 17.1318C48.7884 17.1318 48.2627 17.0798 47.8135 16.9756C47.3675 16.8682 46.9492 16.7331 46.5586 16.5703V14.8271H46.7637C47.151 15.1364 47.584 15.374 48.0625 15.54C48.5443 15.7061 49.0065 15.7891 49.4492 15.7891C49.5632 15.7891 49.7129 15.7793 49.8984 15.7598C50.084 15.7402 50.2354 15.7077 50.3525 15.6621C50.4958 15.6035 50.613 15.5303 50.7041 15.4424C50.7985 15.3545 50.8457 15.2243 50.8457 15.0518C50.8457 14.8923 50.7773 14.7555 50.6406 14.6416C50.5072 14.5244 50.3102 14.4349 50.0498 14.373C49.7764 14.3079 49.4867 14.2477 49.1807 14.1924C48.8779 14.1338 48.5931 14.0605 48.3262 13.9727C47.7142 13.7741 47.2731 13.5055 47.0029 13.167C46.736 12.8252 46.6025 12.402 46.6025 11.8975C46.6025 11.2204 46.9053 10.6686 47.5107 10.2422C48.1195 9.8125 48.9007 9.59766 49.8545 9.59766C50.333 9.59766 50.805 9.64486 51.2705 9.73926C51.7393 9.8304 52.1445 9.94596 52.4863 10.0859V11.7607H52.2861C51.9932 11.5264 51.6335 11.3311 51.207 11.1748C50.7839 11.0153 50.3509 10.9355 49.9082 10.9355C49.752 10.9355 49.5957 10.9469 49.4395 10.9697C49.2865 10.9893 49.1383 11.0283 48.9951 11.0869C48.8682 11.1357 48.7591 11.2106 48.668 11.3115C48.5768 11.4092 48.5312 11.5215 48.5312 11.6484C48.5312 11.8405 48.6045 11.9886 48.751 12.0928C48.8975 12.1937 49.1742 12.2865 49.5811 12.3711C49.848 12.4264 50.1035 12.4801 50.3477 12.5322C50.5951 12.5843 50.8604 12.6559 51.1436 12.7471C51.7002 12.9294 52.1104 13.1784 52.374 13.4941C52.641 13.8066 52.7744 14.2135 52.7744 14.7148ZM59.752 11.1357H57.4814V17H55.6064V11.1357H53.3359V9.72949H59.752V11.1357ZM67.5986 17H65.6602L65.1572 15.5303H62.4619L61.959 17H60.0693L62.7549 9.72949H64.9131L67.5986 17ZM64.7031 14.1973L63.8096 11.5898L62.916 14.1973H64.7031ZM75.0742 16.585C74.7487 16.7119 74.3174 16.8389 73.7803 16.9658C73.2432 17.0895 72.7077 17.1514 72.1738 17.1514C70.9368 17.1514 69.9684 16.8161 69.2686 16.1455C68.5687 15.4717 68.2188 14.5423 68.2188 13.3574C68.2188 12.2279 68.5719 11.318 69.2783 10.6279C69.9847 9.93457 70.9694 9.58789 72.2324 9.58789C72.7109 9.58789 73.1667 9.63184 73.5996 9.71973C74.0326 9.80436 74.5143 9.97526 75.0449 10.2324V11.9365H74.835C74.7438 11.8682 74.6104 11.7721 74.4346 11.6484C74.2588 11.5215 74.0895 11.4141 73.9268 11.3262C73.738 11.222 73.5166 11.1325 73.2627 11.0576C73.012 10.9827 72.7451 10.9453 72.4619 10.9453C72.1299 10.9453 71.8288 10.9941 71.5586 11.0918C71.2884 11.1895 71.0459 11.3392 70.8311 11.541C70.626 11.7363 70.4632 11.9854 70.3428 12.2881C70.2256 12.5876 70.167 12.9342 70.167 13.3281C70.167 14.1322 70.3802 14.7474 70.8066 15.1738C71.2331 15.6003 71.863 15.8135 72.6963 15.8135C72.7679 15.8135 72.846 15.8118 72.9307 15.8086C73.0186 15.8053 73.0983 15.8005 73.1699 15.7939V14.3682H71.7197V12.9961H75.0742V16.585ZM80.8359 11.9561C80.8359 11.7738 80.7985 11.6175 80.7236 11.4873C80.6488 11.3571 80.5202 11.2546 80.3379 11.1797C80.2109 11.1276 80.0628 11.0967 79.8936 11.0869C79.7243 11.0739 79.5273 11.0674 79.3027 11.0674H78.624V13.0254H79.2002C79.4997 13.0254 79.7503 13.0107 79.9521 12.9814C80.154 12.9521 80.3232 12.8854 80.46 12.7812C80.5902 12.6803 80.6846 12.5697 80.7432 12.4492C80.805 12.3255 80.8359 12.1611 80.8359 11.9561ZM83.7607 17H81.4707L79.4883 14.334H78.624V17H76.7588V9.72949H79.9033C80.333 9.72949 80.7025 9.75391 81.0117 9.80273C81.321 9.85156 81.6107 9.95736 81.8809 10.1201C82.1543 10.2829 82.3708 10.4945 82.5303 10.7549C82.693 11.012 82.7744 11.3359 82.7744 11.7266C82.7744 12.2637 82.6491 12.7015 82.3984 13.04C82.151 13.3786 81.7962 13.6602 81.334 13.8848L83.7607 17ZM91.2998 17H89.3613L88.8584 15.5303H86.1631L85.6602 17H83.7705L86.4561 9.72949H88.6143L91.2998 17ZM88.4043 14.1973L87.5107 11.5898L86.6172 14.1973H88.4043ZM99.9668 17H98.1016V12.1318L96.7539 15.291H95.46L94.1123 12.1318V17H92.3447V9.72949H94.5225L96.1582 13.377L97.7891 9.72949H99.9668V17Z" fill="white"/>
</svg>
