<svg width="111" height="28" viewBox="0 0 111 28" fill="none" xmlns="http://www.w3.org/2000/svg">
<path d="M109 0H2C0.895431 0 0 0.895431 0 2V26C0 27.1046 0.895429 28 2 28H109C110.105 28 111 27.1046 111 26V2C111 0.895431 110.105 0 109 0Z" fill="#007EC6"/>
<path d="M43.1318 17.5H37.8877V10.2295H39.7627V16.0938H43.1318V17.5ZM48.1953 17.5H43.9375V16.2109H45.1289V11.5186H43.9375V10.2295H48.1953V11.5186H47.0039V16.2109H48.1953V17.5ZM56.335 17.5H54.5283L51.4424 12.5098V17.5H49.7236V10.2295H51.9648L54.6162 14.3945V10.2295H56.335V17.5ZM64.9775 17.5H62.6777L60.5049 14.5898L60.0654 15.1221V17.5H58.1904V10.2295H60.0654V13.5205L62.6631 10.2295H64.8359L61.9941 13.5938L64.9775 17.5ZM71.1641 17.5H65.9053V10.2295H71.1641V11.6357H67.7705V12.8906H70.9199V14.2969H67.7705V16.0938H71.1641V17.5ZM79.6113 13.8721C79.6113 14.5492 79.4567 15.1562 79.1475 15.6934C78.8382 16.2272 78.4476 16.6374 77.9756 16.9238C77.6208 17.1387 77.2318 17.2884 76.8086 17.373C76.3854 17.4577 75.8841 17.5 75.3047 17.5H72.7412V10.2295H75.3779C75.9704 10.2295 76.4814 10.2799 76.9111 10.3809C77.3408 10.4785 77.7021 10.6185 77.9951 10.8008C78.4964 11.1068 78.8903 11.5202 79.1768 12.041C79.4665 12.5586 79.6113 13.1689 79.6113 13.8721ZM77.6729 13.8574C77.6729 13.3789 77.585 12.9704 77.4092 12.6318C77.2367 12.29 76.9616 12.0231 76.584 11.8311C76.3919 11.7367 76.195 11.6732 75.9932 11.6406C75.7946 11.6048 75.4935 11.5869 75.0898 11.5869H74.6162V16.1377H75.0898C75.5358 16.1377 75.863 16.1182 76.0713 16.0791C76.2796 16.0368 76.4831 15.9619 76.6816 15.8545C77.0234 15.6592 77.2741 15.3988 77.4336 15.0732C77.5931 14.7445 77.6729 14.3392 77.6729 13.8574ZM84.9727 17.5H80.7148V16.2109H81.9062V11.5186H80.7148V10.2295H84.9727V11.5186H83.7812V16.2109H84.9727V17.5ZM93.1123 17.5H91.3057L88.2197 12.5098V17.5H86.501V10.2295H88.7422L91.3936 14.3945V10.2295H93.1123V17.5Z" fill="white"/>
<path fill-rule="evenodd" clip-rule="evenodd" d="M3 4.838C3 4.35053 3.19365 3.88303 3.53834 3.53834C3.88303 3.19365 4.35053 3 4.838 3H23.16C23.4016 2.99961 23.6409 3.04687 23.8641 3.13907C24.0874 3.23127 24.2903 3.36661 24.4612 3.53734C24.6322 3.70807 24.7677 3.91083 24.8602 4.13401C24.9526 4.3572 25.0001 4.59643 25 4.838V23.16C25.0003 23.4016 24.9529 23.6409 24.8606 23.8642C24.7683 24.0875 24.6328 24.2904 24.462 24.4613C24.2912 24.6322 24.0884 24.7678 23.8651 24.8602C23.6419 24.9526 23.4026 25.0001 23.161 25H4.838C4.59655 25 4.35746 24.9524 4.1344 24.86C3.91134 24.7676 3.70867 24.6321 3.53798 24.4613C3.3673 24.2905 3.23193 24.0878 3.13962 23.8647C3.04731 23.6416 2.99987 23.4025 3 23.161V4.838ZM11.708 11.388H14.687V12.884C15.117 12.024 16.217 11.25 17.87 11.25C21.039 11.25 21.79 12.963 21.79 16.106V21.928H18.583V16.822C18.583 15.032 18.153 14.022 17.061 14.022C15.546 14.022 14.916 15.111 14.916 16.822V21.928H11.708V11.388ZM6.208 21.791H9.416V11.25H6.208V21.79V21.791ZM9.875 7.812C9.88105 8.08667 9.83217 8.35979 9.73124 8.61532C9.63031 8.87084 9.47935 9.10364 9.28723 9.30003C9.09511 9.49643 8.8657 9.65248 8.61246 9.75901C8.35921 9.86554 8.08724 9.92042 7.8125 9.92042C7.53776 9.92042 7.26579 9.86554 7.01255 9.75901C6.7593 9.65248 6.52989 9.49643 6.33777 9.30003C6.14565 9.10364 5.99469 8.87084 5.89376 8.61532C5.79283 8.35979 5.74395 8.08667 5.75 7.812C5.76187 7.27286 5.98439 6.75979 6.36989 6.38269C6.75539 6.00558 7.27322 5.79442 7.8125 5.79442C8.35178 5.79442 8.86961 6.00558 9.25512 6.38269C9.64062 6.75979 9.86313 7.27286 9.875 7.812V7.812Z" fill="white"/>
</svg>
